HIERARCHY
ROOT Hip
{
  OFFSET 0.0 0.0 0.0
  CHANNELS 6 Xposition Yposition Zposition Xrotation Yrotation Zrotation
  JOINT LowerSpine
  {
    OFFSET 0.0 0.061367 -0.03653
    CHANNELS 3 Xrotation Yrotation Zrotation
    JOINT MiddleSpine
    {
      OFFSET 0.0 0.056002 0.002633
      CHANNELS 3 Xrotation Yrotation Zrotation
      JOINT Chest
      {
        OFFSET 0.0 0.069296 -0.013882
        CHANNELS 3 Xrotation Yrotation Zrotation
        JOINT Neck
        {
          OFFSET 0.0 0.156156 -0.002923
          CHANNELS 3 Xrotation Yrotation Zrotation
          JOINT Head
          {
            OFFSET 0.0 0.088183 0.023986
            CHANNELS 3 Xrotation Yrotation Zrotation
            End Site
            {
              OFFSET 1e-06 0.123215 0.003678
            }
          }
        }
        JOINT LClavicle
        {
          OFFSET 0.014189 0.150698 0.046467
          CHANNELS 3 Xrotation Yrotation Zrotation
          JOINT LShoulder
          {
            OFFSET 0.082893 0.021616 -0.034976
            CHANNELS 3 Xrotation Yrotation Zrotation
            JOINT LForearm
            {
              OFFSET 0.195645 -0.000695 -0.001695
              CHANNELS 3 Xrotation Yrotation Zrotation
              JOINT LHand
              {
                OFFSET 0.163209 0.000474 -0.000977
                CHANNELS 3 Xrotation Yrotation Zrotation
                End Site
                {
                  OFFSET 0.0 0.006864 0.0
                }
              }
            }
          }
        }
        JOINT RClavicle
        {
          OFFSET -0.014189 0.150698 0.046467
          CHANNELS 3 Xrotation Yrotation Zrotation
          JOINT RShoulder
          {
            OFFSET -0.082908 0.021619 -0.034982
            CHANNELS 3 Xrotation Yrotation Zrotation
            JOINT RForearm
            {
              OFFSET -0.195645 -0.000695 -0.001695
              CHANNELS 3 Xrotation Yrotation Zrotation
              JOINT RHand
              {
                OFFSET -0.163209 0.000474 -0.000977
                CHANNELS 3 Xrotation Yrotation Zrotation
                End Site
                {
                  OFFSET 0.0 0.006864 0.0
                }
              }
            }
          }
        }
      }
    }
  }
  JOINT RThigh
  {
    OFFSET -0.072558 0.02774 -0.005953
    CHANNELS 3 Xrotation Yrotation Zrotation
    JOINT RShin
    {
      OFFSET -0.005253 -0.285537 0.0
      CHANNELS 3 Xrotation Yrotation Zrotation
      JOINT RFoot
      {
        OFFSET 0.0 -0.28038 0.0
        CHANNELS 3 Xrotation Yrotation Zrotation
        JOINT RToe
        {
          OFFSET 0.0 -0.030816 0.064441
          CHANNELS 3 Xrotation Yrotation Zrotation
          End Site
          {
            OFFSET 0.0 0.0 0.043231
          }
        }
      }
    }
  }
  JOINT LThigh
  {
    OFFSET 0.072557 0.027741 -0.005953
    CHANNELS 3 Xrotation Yrotation Zrotation
    JOINT LShin
    {
      OFFSET 0.005253 -0.285539 0.0
      CHANNELS 3 Xrotation Yrotation Zrotation
      JOINT LFoot
      {
        OFFSET 0.0 -0.28038 0.0
        CHANNELS 3 Xrotation Yrotation Zrotation
        JOINT LToe
        {
          OFFSET 0.0 -0.030816 0.064441
          CHANNELS 3 Xrotation Yrotation Zrotation
          End Site
          {
            OFFSET 0.0 0.0 0.043231
          }
        }
      }
    }
  }
}
MOTION
Frames: 16
Frame Time: 0.03333333333333333
0.05011 0.57328 1.688999 53.090401 -85.580658 49.669659 0.510161 -0.242938 0.36246 -0.025608 -0.074364 1.021077 -2.63547 -4.086184 2.910525 -0.368722 0.312678 -0.347797 0.02668 -0.070246 -0.000157 -0.886538 -2.341525 -9.83054 16.035721 -19.346659 -42.6754 3.168329 -22.905567 -0.445913 0.040594 0.074556 -0.059777 -1.370271 1.004392 7.748723 21.423031 25.450977 38.395264 5.327598 21.647444 0.595922 0.003818 -0.201949 -0.016603 -12.791551 -6.726723 -3.815872 20.978262 -3.115884 3.19227 -2.152661 1.098793 -0.074247 -0.196735 0.163502 0.081375 -12.365468 -7.618729 3.315263 14.202035 -4.827279 -2.00003 -2.654464 -0.49693 0.367977 -0.002318 -0.050352 -0.011326 
0.033423 0.572823 1.689814 82.645233 -85.988632 78.805878 0.504695 -0.27802 0.3827 -0.083391 -0.14965 1.084644 -2.588197 -4.211672 3.00049 -0.319616 0.32571 -0.326177 0.02959 -0.081798 -0.002729 -0.877796 -2.317827 -9.813018 15.731782 -18.477827 -42.543369 2.414541 -23.060663 -0.175748 0.04588 0.081801 -0.064212 -1.349652 0.941523 7.912745 20.908642 24.867895 39.272884 4.497931 20.749018 0.653039 -0.022643 -0.194514 -0.021936 -14.887568 -6.693676 -3.867062 23.096882 -3.299272 3.070987 -2.217244 0.926326 -0.128827 -0.204628 0.161621 0.089946 -12.414807 -7.666081 3.514997 15.032461 -4.938561 -1.787176 -2.84391 -0.49032 0.392947 0.007855 -0.056738 -0.015897 
0.016385 0.571949 1.691097 117.893463 -84.983353 113.63076 0.481321 -0.295314 0.405732 -0.123828 -0.209541 1.155282 -2.58282 -4.277162 3.237412 -0.286382 0.338105 -0.307797 0.032533 -0.08765 -0.004842 -0.878664 -2.286916 -9.823025 15.483757 -17.185667 -42.715973 1.542039 -23.212212 0.035698 0.050709 0.087936 -0.067321 -1.316124 0.897417 8.117079 19.8992 23.948387 40.279858 2.923675 19.657209 0.709333 -0.044923 -0.187167 -0.026715 -16.923361 -6.754308 -3.839882 24.939096 -3.522154 2.904651 -2.295121 0.76539 -0.179075 -0.2105 0.158297 0.098634 -13.071031 -7.674944 3.80517 16.629332 -4.954954 -1.510188 -3.016517 -0.442932 0.428337 0.020716 -0.059497 -0.018721 
0.000188 0.57095 1.691773 136.234436 -83.115868 131.532501 0.469034 -0.296146 0.433428 -0.174889 -0.244771 1.220103 -2.743527 -4.278877 3.380127 -0.255583 0.351376 -0.285381 0.034847 -0.102686 -0.005647 -0.903743 -2.295082 -9.858262 15.476388 -16.255245 -42.857567 0.875106 -23.205046 0.140141 0.054196 0.09272 -0.068592 -1.308722 0.943404 8.311274 19.075089 23.150618 41.252308 1.636439 18.730261 0.807076 -0.071767 -0.172228 -0.030298 -18.736494 -6.908085 -3.568996 26.282108 -3.712882 2.68541 -2.35125 0.629724 -0.228416 -0.219283 0.150126 0.10706 -13.857029 -7.682792 4.098462 18.310173 -4.9328 -1.312092 -3.140554 -0.428949 0.451744 0.031206 -0.06037 -0.02126 
-0.017203 0.570022 1.691914 146.79744 -80.664932 141.870743 0.468473 -0.300251 0.448864 -0.199538 -0.272853 1.258993 -2.751819 -4.311832 3.455954 -0.230658 0.356132 -0.267734 0.035319 -0.112916 -0.005716 -0.906799 -2.288551 -9.89481 15.160966 -15.600368 -42.861237 0.053977 -23.061295 0.197864 0.054356 0.094328 -0.06597 -1.31831 1.048039 8.439347 18.473007 22.740196 42.042305 0.76267 17.817778 0.943014 -0.089108 -0.154978 -0.030409 -20.543655 -7.123318 -3.238927 27.299076 -3.813231 2.482207 -2.312885 0.544746 -0.255698 -0.217397 0.14501 0.109263 -13.562848 -7.635763 4.254256 19.219574 -4.933717 -1.194357 -3.263477 -0.484495 0.449429 0.029283 -0.060464 -0.022497 
-0.034026 0.568413 1.691646 152.443115 -78.177269 147.341217 0.476035 -0.310933 0.45119 -0.224713 -0.292916 1.303478 -2.745135 -4.297098 3.537494 -0.191132 0.354867 -0.260119 0.035211 -0.118098 -0.004642 -0.893122 -2.238096 -9.88236 14.773195 -14.885708 -42.81826 -0.697349 -22.913208 0.266813 0.053512 0.094765 -0.062851 -1.312513 1.097384 8.553963 17.838232 22.345745 42.553211 0.118567 17.056673 1.067832 -0.09886 -0.140917 -0.029686 -22.440483 -7.407177 -2.99745 28.133657 -3.901273 2.321121 -2.26081 0.444049 -0.283569 -0.211927 0.141871 0.109877 -13.361397 -7.672563 4.38916 20.282267 -4.933568 -1.118808 -3.334253 -0.535647 0.439084 0.024702 -0.058978 -0.021765 
-0.050562 0.566403 1.691412 156.376953 -75.777397 151.118027 0.482536 -0.317097 0.450223 -0.247486 -0.324942 1.337416 -2.748109 -4.290906 3.59295 -0.151538 0.350249 -0.247994 0.034869 -0.120509 -0.003952 -0.869409 -2.194061 -9.882135 14.443868 -14.21583 -42.854824 -1.413222 -22.844498 0.34156 0.052562 0.09494 -0.060166 -1.306675 1.147981 8.625069 17.311134 22.128035 42.85704 -0.340335 16.407286 1.175294 -0.10604 -0.126822 -0.028872 -24.149553 -7.593658 -2.746089 28.804605 -3.921899 2.182209 -2.151282 0.346688 -0.309458 -0.206846 0.138777 0.108462 -13.081018 -7.72358 4.434202 21.261131 -4.911958 -1.070054 -3.410215 -0.574232 0.432957 0.018606 -0.056278 -0.020672 
-0.067645 0.564127 1.690645 159.189957 -73.573135 153.803329 0.481638 -0.319807 0.441684 -0.268435 -0.366727 1.339179 -2.76005 -4.352238 3.567162 -0.117378 0.337677 -0.235214 0.034356 -0.11901 -0.003732 -0.825756 -2.13897 -9.903866 14.202788 -13.670451 -42.768822 -1.997843 -22.752445 0.412239 0.05128 0.094097 -0.056805 -1.291468 1.191069 8.663298 16.98073 22.032906 42.980167 -0.676244 15.768791 1.270159 -0.107694 -0.114826 -0.027507 -25.595306 -7.772103 -2.444849 29.468325 -3.923059 2.066815 -1.974784 0.263746 -0.322714 -0.199406 0.136852 0.103941 -12.566838 -7.730898 4.372873 21.972872 -4.857168 -1.03266 -3.462333 -0.607151 0.421686 0.010589 -0.050922 -0.018213 
-0.084531 0.561589 1.689693 161.501877 -71.273506 155.946182 0.483555 -0.321641 0.425568 -0.291059 -0.417719 1.344854 -2.736699 -4.470932 3.541985 -0.094298 0.324718 -0.228799 0.034152 -0.116304 -0.003781 -0.781976 -2.108113 -9.91024 14.078299 -13.40179 -42.559208 -2.339806 -22.652393 0.479385 0.051138 0.095237 -0.055042 -1.280026 1.207524 8.708166 16.902395 22.079922 42.923042 -0.693516 15.139229 1.370193 -0.106311 -0.108624 -0.026027 -27.209307 -8.063396 -2.21753 30.102436 -3.966594 2.001129 -1.804965 0.179914 -0.335224 -0.189897 0.135925 0.099637 -11.899915 -7.614057 4.421465 22.532772 -4.727248 -1.061226 -3.502768 -0.642299 0.405195 0.001236 -0.046564 -0.01608 
-0.101012 0.558798 1.687936 163.344147 -69.207436 157.595398 0.488994 -0.325063 0.406598 -0.313514 -0.473524 1.359571 -2.698009 -4.630937 3.528359 -0.069196 0.31887 -0.225432 0.034793 -0.114862 -0.004283 -0.735808 -2.103056 -9.902419 13.921684 -13.286305 -42.341236 -2.658626 -22.659615 0.556933 0.051774 0.097952 -0.054708 -1.267982 1.198455 8.751551 16.944115 22.035301 42.813786 -0.550833 14.556761 1.46674 -0.10278 -0.10678 -0.024591 -29.005157 -8.369299 -1.945026 30.669298 -4.010806 1.948865 -1.635979 0.109923 -0.346076 -0.179051 0.137788 0.096845 -10.994093 -7.355622 4.532395 22.957445 -4.488686 -1.130969 -3.523254 -0.669167 0.393837 -0.010271 -0.044071 -0.01485 
-0.118284 0.555851 1.685351 165.49855 -67.046967 159.57518 0.502795 -0.329556 0.367183 -0.295898 -0.506448 1.357346 -2.536422 -4.818709 3.590464 -0.025819 0.320155 -0.217564 0.035051 -0.112682 -0.006676 -0.692374 -2.097322 -9.895613 13.555608 -13.107316 -42.303123 -3.34081 -23.019554 0.546919 0.051143 0.099057 -0.054387 -1.235091 1.129218 8.818029 17.077204 21.871998 42.58828 -0.12429 14.238105 1.599125 -0.095113 -0.1066 -0.022633 -30.833387 -8.333737 -1.584197 30.958628 -3.917229 1.867329 -1.430309 0.113721 -0.32638 -0.166324 0.137207 0.093605 -9.176733 -6.621131 4.673327 22.971397 -4.04349 -1.209175 -3.54117 -0.645374 0.404199 -0.034463 -0.039864 -0.012566 
-0.13543 0.553115 1.681326 167.185883 -65.56131 161.113785 0.505504 -0.331824 0.329422 -0.268181 -0.547538 1.357689 -2.311006 -5.095869 3.626225 0.00856 0.319554 -0.216944 0.034895 -0.11141 -0.009805 -0.649206 -2.097906 -9.905959 13.22448 -13.261315 -42.12302 -3.88409 -23.287315 0.521096 0.049281 0.098512 -0.052824 -1.178368 1.030022 8.910077 17.217976 21.692194 42.366249 0.238952 13.89182 1.734774 -0.086956 -0.106101 -0.020896 -32.126171 -8.159986 -1.148489 30.652437 -3.769065 1.767174 -1.260178 0.136134 -0.292728 -0.157643 0.131123 0.087837 -7.26463 -5.782061 4.817245 22.805321 -3.500385 -1.308076 -3.606109 -0.585041 0.430431 -0.062673 -0.035487 -0.010967 
-0.153929 0.551057 1.675968 168.348618 -64.595566 162.084381 0.510987 -0.329824 0.298997 -0.240688 -0.599616 1.368393 -2.024226 -5.288746 3.721719 0.041386 0.312193 -0.219369 0.03537 -0.110821 -0.010365 -0.646094 -2.128999 -9.944895 12.888391 -13.437078 -42.067348 -4.151609 -23.775194 0.492054 0.049123 0.100521 -0.053077 -1.127815 0.952542 9.016839 17.38158 21.400684 42.051517 0.768428 13.716623 1.875576 -0.085241 -0.106161 -0.020118 -32.577301 -7.823015 -0.579658 29.633839 -3.595594 1.591059 -1.116781 0.20094 -0.248564 -0.153834 0.126793 0.085352 -5.371596 -4.92154 5.028043 22.762033 -2.967982 -1.462577 -3.677339 -0.53172 0.459237 -0.092553 -0.031957 -0.012351 
-0.172568 0.549325 1.669953 169.239883 -63.932423 162.771027 0.532106 -0.335414 0.267369 -0.225019 -0.651364 1.394828 -1.782752 -5.455379 3.830324 0.076807 0.307436 -0.221069 0.036565 -0.112632 -0.011636 -0.628098 -2.175706 -9.968245 12.462766 -13.765618 -42.073162 -4.269997 -24.341267 0.516356 0.050392 0.10631 -0.055717 -1.079641 0.852373 9.086734 17.487955 21.147987 41.846004 1.289991 13.563528 1.951644 -0.083686 -0.110115 -0.020035 -32.763832 -7.465499 0.01554 28.441446 -3.416449 1.41679 -0.97382 0.295991 -0.195553 -0.150065 0.130236 0.085897 -3.667119 -4.073931 5.281789 22.903067 -2.445241 -1.660839 -3.722143 -0.478082 0.490093 -0.122468 -0.031725 -0.014557 
-0.192028 0.548153 1.662875 169.503998 -63.810894 162.823029 0.556858 -0.333721 0.239192 -0.212215 -0.713873 1.430521 -1.646737 -5.682088 4.007936 0.09226 0.2922 -0.221336 0.034893 -0.110876 -0.00845 -0.619521 -2.213312 -10.00215 12.063774 -14.199729 -42.065742 -4.238156 -24.889433 0.494455 0.050728 0.107767 -0.056193 -1.033639 0.780449 9.155514 17.650665 20.831573 41.629589 1.687998 13.441079 2.041919 -0.077056 -0.111823 -0.019295 -32.533257 -7.212823 0.667388 27.054567 -3.244563 1.262151 -0.903038 0.425319 -0.125022 -0.147856 0.130885 0.086005 -2.408758 -3.398664 5.531577 23.595886 -2.000141 -1.841514 -3.726232 -0.417262 0.510238 -0.151929 -0.027209 -0.014996 
-0.21156 0.547501 1.655262 169.56929 -63.910347 162.788681 0.578612 -0.322824 0.21821 -0.184544 -0.779478 1.462909 -1.610101 -5.965007 4.241294 0.088613 0.271502 -0.227296 0.033272 -0.102973 -0.005611 -0.621022 -2.2538 -10.039294 11.706366 -14.663074 -42.114071 -4.156201 -25.476374 0.394399 0.049797 0.106463 -0.054988 -0.972261 0.711941 9.17436 17.839314 20.539215 41.418411 1.943418 13.423141 2.122267 -0.066234 -0.113835 -0.018267 -31.957479 -7.041839 1.329076 25.472164 -3.056413 1.136757 -0.898384 0.581825 -0.04269 -0.145992 0.12888 0.084484 -1.563984 -2.880584 5.762504 24.632189 -1.596961 -2.01861 -3.710453 -0.34484 0.525526 -0.179982 -0.019364 -0.013763 
